# xmcd
#
# Track frame offsets: 
#        150
#        22819
#        42935
#        120066
#
# Disc length: 1681 seconds
#
# Revision: 0
# Processed by: cddbd v1.5.2PL0 Copyright (c) Steve Scherf et al.
# Submitted via: ExactAudioCopy v0.95b4
#
DISCID=1e068f04
DTITLE=Eric Clapton - 1989-02-03 - Beetle Clasher - CD3
DYEAR=1989
DGENRE=Blues
TTITLE0=Solid Rock
TTITLE1=Behind The Mask
TTITLE2=Sunshine Of Your Love
TTITLE3=Closing
EXTD=
EXTT0=
EXTT1=
EXTT2=
EXTT3=
PLAYORDER=
